<svg width="49" height="28" viewBox="0 0 49 28" version="1.1" xmlns="http://www.w3.org/2000/svg" xmlns:xlink="http://www.w3.org/1999/xlink" xmlns:figma="http://www.figma.com/figma/ns">
<title>Cj4U</title>
<desc>Created using Figma</desc>
<g id="Canvas" transform="translate(-2575 780)" figma:type="canvas">
<g id="Cj4U" style="mix-blend-mode:normal;" figma:type="text">
<use xlink:href="#path0_fill" transform="translate(2575 -785)" fill="url(#paint0_radial)" style="mix-blend-mode:screen;"/>
</g>
</g>
<defs>
<radialGradient id="paint0_radial" cx="0.5" cy="0.5" r="0.5" gradientUnits="userSpaceOnUse" gradientTransform="matrix(-0.201632 76.4251 -109.179 -0.202591 80.4966 -31.5171)">
<stop offset="0" stop-color="#FFE000"/>
<stop offset="0.603974" stop-color="#FFC3AB"/>
<stop offset="1" stop-color="#FE4700"/>
</radialGradient>
<path id="path0_fill" d="M 13.7451 13.0728C 13.7451 13.4878 13.6719 13.911 13.5254 14.3423C 13.3789 14.7655 13.1673 15.152 12.8906 15.502C 12.6221 15.8438 12.2925 16.1245 11.9019 16.3442C 11.5112 16.564 11.0677 16.6738 10.5713 16.6738C 10.1318 16.6738 9.75342 16.6006 9.43604 16.4541C 9.12679 16.2995 8.87044 16.096 8.66699 15.8438C 8.47168 15.5915 8.3252 15.3066 8.22754 14.9893C 8.12988 14.6719 8.08105 14.3423 8.08105 14.0005C 8.08105 13.6587 8.12174 13.3291 8.20312 13.0117C 8.29264 12.6862 8.42692 12.3973 8.60596 12.145C 8.65479 12.3159 8.71989 12.4502 8.80127 12.5479C 8.88265 12.6374 8.9681 12.7025 9.05762 12.7432C 9.15527 12.792 9.26107 12.8205 9.375 12.8286C 9.63542 12.8286 9.81852 12.7594 9.92432 12.6211C 10.0382 12.4827 10.0952 12.3241 10.0952 12.145C 10.0952 12.0636 10.0789 11.9823 10.0464 11.9009C 10.0138 11.8114 9.96094 11.73 9.8877 11.6567C 9.82259 11.5835 9.73307 11.5225 9.61914 11.4736C 9.50521 11.4248 9.36686 11.4004 9.2041 11.4004C 9.11458 11.4004 8.98438 11.4126 8.81348 11.437C 8.65072 11.4614 8.46761 11.5265 8.26416 11.6323C 8.06071 11.73 7.85319 11.8805 7.6416 12.084C 7.43001 12.2874 7.2347 12.5641 7.05566 12.9141C 6.88477 13.264 6.74235 13.6994 6.62842 14.2202C 6.52262 14.741 6.46973 15.3758 6.46973 16.1245C 6.46973 16.6372 6.51855 17.0848 6.61621 17.4673C 6.72201 17.8416 6.85628 18.1631 7.01904 18.4316C 7.1818 18.7002 7.36898 18.9199 7.58057 19.0908C 7.79215 19.2617 8.00781 19.396 8.22754 19.4937C 8.44727 19.5913 8.65885 19.6605 8.8623 19.7012C 9.07389 19.7337 9.26107 19.75 9.42383 19.75C 9.63542 19.75 9.8999 19.7134 10.2173 19.6401C 10.5428 19.5588 10.8643 19.4163 11.1816 19.2129C 11.499 19.0094 11.7839 18.7287 12.0361 18.3706C 12.2965 18.0125 12.4756 17.5487 12.5732 16.979C 12.8581 17.3778 13.0737 17.8538 13.2202 18.4072C 13.3748 18.9606 13.4521 19.5425 13.4521 20.1528C 13.4521 20.9829 13.3016 21.7886 13.0005 22.5698C 12.7075 23.3429 12.2843 24.0306 11.731 24.6328C 11.1857 25.235 10.5225 25.7152 9.74121 26.0732C 8.95996 26.4395 8.08919 26.6226 7.12891 26.6226C 6.4209 26.6226 5.76579 26.5086 5.16357 26.2808C 4.56136 26.061 4.01204 25.7518 3.51562 25.353C 3.01921 24.9543 2.58382 24.4863 2.20947 23.9492C 1.83512 23.404 1.51774 22.814 1.25732 22.1792C 0.996908 21.5444 0.801595 20.8771 0.671387 20.1772C 0.541178 19.4692 0.476074 18.7531 0.476074 18.0288C 0.476074 17.2313 0.561523 16.4297 0.732422 15.624C 0.90332 14.8102 1.14746 14.029 1.46484 13.2803C 1.79036 12.5316 2.18099 11.8317 2.63672 11.1807C 3.10059 10.5215 3.62549 9.95182 4.21143 9.47168C 4.79736 8.9834 5.44027 8.60091 6.14014 8.32422C 6.84001 8.03939 7.58464 7.89697 8.37402 7.89697C 9.09017 7.89697 9.72087 7.98242 10.2661 8.15332C 10.8114 8.31608 11.2793 8.53988 11.6699 8.82471C 12.0687 9.1014 12.4023 9.41878 12.6709 9.77686C 12.9395 10.1349 13.151 10.5052 13.3057 10.8877C 13.4684 11.2702 13.5824 11.6527 13.6475 12.0352C 13.7126 12.4095 13.7451 12.7554 13.7451 13.0728ZM 14.5874 8.49512C 14.5874 8.12077 14.6566 7.77083 14.7949 7.44531C 14.9414 7.11165 15.1367 6.82275 15.3809 6.57861C 15.6331 6.32634 15.922 6.13102 16.2476 5.99268C 16.5812 5.84619 16.9352 5.77295 17.3096 5.77295C 17.6839 5.77295 18.0339 5.84619 18.3594 5.99268C 18.693 6.13102 18.9819 6.32634 19.2261 6.57861C 19.4784 6.82275 19.6737 7.11165 19.812 7.44531C 19.9585 7.77083 20.0317 8.12077 20.0317 8.49512C 20.0317 8.86947 19.9585 9.22347 19.812 9.55713C 19.6737 9.89079 19.4784 10.1838 19.2261 10.436C 18.9819 10.6802 18.693 10.8755 18.3594 11.022C 18.0339 11.1603 17.6839 11.2295 17.3096 11.2295C 16.9352 11.2295 16.5812 11.1603 16.2476 11.022C 15.922 10.8755 15.6331 10.6802 15.3809 10.436C 15.1367 10.1838 14.9414 9.89079 14.7949 9.55713C 14.6566 9.22347 14.5874 8.86947 14.5874 8.49512ZM 20.0073 11.9741C 19.9178 12.3159 19.8405 12.735 19.7754 13.2314C 19.7184 13.7197 19.6655 14.2568 19.6167 14.8428C 19.5679 15.4206 19.5272 16.0228 19.4946 16.6494C 19.4702 17.276 19.4458 17.8905 19.4214 18.4927C 19.3726 19.9087 19.3441 21.4102 19.3359 22.9971C 19.3359 23.8271 19.283 24.641 19.1772 25.4385C 19.0796 26.2279 18.9168 26.9725 18.689 27.6724C 18.4692 28.3722 18.1803 29.0192 17.8223 29.6133C 17.4723 30.2074 17.041 30.716 16.5283 31.1392C 16.0238 31.5623 15.4338 31.8919 14.7583 32.1279C 14.091 32.3721 13.3341 32.4941 12.4878 32.4941C 11.853 32.4941 11.2915 32.4128 10.8032 32.25C 10.3068 32.0872 9.89176 31.8553 9.55811 31.5542C 9.21631 31.2612 8.95589 30.9072 8.77686 30.4922C 8.59782 30.0853 8.5083 29.6296 8.5083 29.125C 8.5083 28.7344 8.58154 28.3763 8.72803 28.0508C 8.87451 27.7253 9.06576 27.4445 9.30176 27.2085C 9.53776 26.9725 9.81038 26.7853 10.1196 26.647C 10.4207 26.5168 10.7259 26.4517 11.0352 26.4517C 11.4421 26.4517 11.8245 26.5737 12.1826 26.8179C 12.5407 27.0701 12.8255 27.473 13.0371 28.0264C 12.9883 27.9857 12.9354 27.9572 12.8784 27.9409C 12.8133 27.9328 12.7482 27.9287 12.6831 27.9287C 12.4959 27.9287 12.321 28.002 12.1582 28.1484C 11.9954 28.3031 11.9141 28.4862 11.9141 28.6978C 11.9141 28.8361 11.9466 28.9541 12.0117 29.0518C 12.0687 29.1494 12.146 29.2308 12.2437 29.2959C 12.3332 29.361 12.4308 29.4058 12.5366 29.4302C 12.6424 29.4627 12.7441 29.479 12.8418 29.479C 12.9964 29.479 13.1673 29.4505 13.3545 29.3936C 13.5335 29.3366 13.7126 29.1901 13.8916 28.9541C 14.0706 28.7262 14.2415 28.3844 14.4043 27.9287C 14.5671 27.4811 14.7095 26.8586 14.8315 26.061C 14.9618 25.2716 15.0635 24.2829 15.1367 23.0947C 15.2181 21.9066 15.2588 20.4661 15.2588 18.7734C 15.2588 18.1794 15.2466 17.5771 15.2222 16.9668C 15.2059 16.3483 15.1693 15.738 15.1123 15.1357C 15.0635 14.5254 14.9943 13.9272 14.9048 13.3413C 14.8153 12.7472 14.7013 12.1816 14.563 11.6445C 14.7664 11.734 15.0187 11.8154 15.3198 11.8887C 15.5802 11.9538 15.9058 12.0107 16.2964 12.0596C 16.6951 12.1003 17.1672 12.1206 17.7124 12.1206C 18.3716 12.1206 19.1366 12.0718 20.0073 11.9741ZM 33.8867 16.8447C 33.8216 17.2109 33.7728 17.5731 33.7402 17.9312C 33.7158 18.2811 33.7036 18.6392 33.7036 19.0054C 33.7036 19.7134 33.7646 20.4214 33.8867 21.1294C 33.6995 21.0399 33.5002 20.9585 33.2886 20.8853C 33.077 20.812 32.8654 20.7428 32.6538 20.6777C 32.7433 21.6055 32.8613 22.5129 33.0078 23.3999C 33.1624 24.2788 33.3537 25.1211 33.5815 25.9268C 33.4188 25.9105 33.2316 25.8942 33.02 25.8779C 32.8328 25.8617 32.605 25.8494 32.3364 25.8413C 32.076 25.8332 31.7749 25.8291 31.4331 25.8291C 30.7821 25.8291 30.0171 25.8576 29.1382 25.9146C 28.2674 25.9715 27.3234 26.0814 26.3062 26.2441C 26.4526 25.943 26.5828 25.5687 26.6968 25.1211C 26.8107 24.6735 26.9084 24.1934 26.9897 23.6807C 27.0793 23.1598 27.1484 22.6187 27.1973 22.0571C 27.2542 21.4956 27.299 20.9504 27.3315 20.4214C 27.1688 20.4295 26.884 20.4255 26.4771 20.4092C 26.0701 20.3929 25.5615 20.3929 24.9512 20.4092C 24.349 20.4255 23.6613 20.4702 22.8882 20.5435C 22.1151 20.6167 21.2809 20.7428 20.3857 20.9219C 20.7926 19.6686 21.1711 18.509 21.521 17.4429C 21.8709 16.3768 22.1883 15.3514 22.4731 14.3667C 22.758 13.382 23.0021 12.4095 23.2056 11.4492C 23.409 10.4889 23.5677 9.48796 23.6816 8.44629C 25.2523 8.58464 26.8148 8.64567 28.3691 8.62939C 29.9235 8.60498 31.486 8.52767 33.0566 8.39746C 32.8695 9.31706 32.7189 10.4198 32.605 11.7056C 32.491 12.9832 32.4341 14.3545 32.4341 15.8193L 32.4341 17.2964C 32.7108 17.2313 32.9712 17.1662 33.2153 17.1011C 33.4595 17.036 33.6833 16.9505 33.8867 16.8447ZM 27.4536 17.6504C 27.4536 17.4388 27.4495 17.158 27.4414 16.8081C 27.4414 16.4582 27.4333 16.0635 27.417 15.624C 27.4089 15.1846 27.3966 14.7126 27.3804 14.208C 27.3641 13.6953 27.3397 13.1745 27.3071 12.6455C 26.9409 13.3535 26.6479 14.1307 26.4282 14.9771C 26.2085 15.8234 26.0091 16.6901 25.8301 17.5771C 26.0173 17.5934 26.1841 17.6056 26.3306 17.6138C 26.4771 17.6219 26.6113 17.63 26.7334 17.6382C 26.8555 17.6382 26.9735 17.6423 27.0874 17.6504C 27.2013 17.6504 27.3234 17.6504 27.4536 17.6504ZM 48.7915 8.39746C 48.6043 9.33333 48.4538 10.4564 48.3398 11.7666C 48.2259 13.0768 48.1689 14.4806 48.1689 15.978C 48.1689 16.1896 48.1689 16.3971 48.1689 16.6006C 48.1771 16.7959 48.1852 16.9993 48.1934 17.2109C 48.2015 17.4225 48.2056 17.6423 48.2056 17.8701C 48.2137 18.098 48.2178 18.3421 48.2178 18.6025C 48.2178 19.1478 48.1934 19.7297 48.1445 20.3481C 48.1038 20.9666 48.0062 21.5811 47.8516 22.1914C 47.6969 22.8018 47.4772 23.3918 47.1924 23.9614C 46.9076 24.5229 46.5251 25.0194 46.0449 25.4507C 45.5729 25.8739 44.987 26.2116 44.2871 26.4639C 43.5872 26.7243 42.749 26.8545 41.7725 26.8545C 40.8529 26.8545 40.0594 26.7487 39.3921 26.5371C 38.7329 26.3337 38.1714 26.0529 37.7075 25.6948C 37.2518 25.3286 36.8815 24.9014 36.5967 24.4131C 36.3118 23.9248 36.0921 23.3999 35.9375 22.8384C 35.7829 22.2687 35.6771 21.6787 35.6201 21.0684C 35.5713 20.458 35.5469 19.8517 35.5469 19.2495C 35.5469 18.981 35.5469 18.7572 35.5469 18.5781C 35.555 18.391 35.5632 18.2241 35.5713 18.0776C 35.5794 17.923 35.5876 17.7684 35.5957 17.6138C 35.6038 17.4591 35.612 17.276 35.6201 17.0645C 35.6283 16.8529 35.6323 16.5965 35.6323 16.2954C 35.6405 15.9943 35.6445 15.62 35.6445 15.1724C 35.6445 14.6271 35.6323 14.0086 35.6079 13.3169C 35.5916 12.6252 35.5509 11.9456 35.4858 11.2783C 35.4207 10.6029 35.3271 9.98844 35.2051 9.43506C 35.0911 8.87354 34.9365 8.45443 34.7412 8.17773C 35.5632 8.32422 36.3322 8.42188 37.0483 8.4707C 37.7726 8.51953 38.4399 8.54395 39.0503 8.54395C 39.4409 8.54395 39.7949 8.53581 40.1123 8.51953C 40.4297 8.50325 40.7023 8.48698 40.9302 8.4707C 41.1987 8.44629 41.4307 8.42188 41.626 8.39746C 41.5202 8.90202 41.4144 9.46761 41.3086 10.0942C 41.2028 10.7209 41.1092 11.3923 41.0278 12.1084C 40.9465 12.8245 40.8773 13.5773 40.8203 14.3667C 40.7715 15.1561 40.7471 15.9577 40.7471 16.7715C 40.7471 17.7887 40.7633 18.6147 40.7959 19.2495C 40.8366 19.8843 40.8976 20.3807 40.979 20.7388C 41.0604 21.0887 41.1662 21.3288 41.2964 21.459C 41.4266 21.5892 41.5853 21.6543 41.7725 21.6543C 42.0247 21.6543 42.2363 21.577 42.4072 21.4224C 42.5863 21.2596 42.7327 20.991 42.8467 20.6167C 42.9688 20.2342 43.0542 19.7337 43.103 19.1152C 43.16 18.4967 43.1925 17.7236 43.2007 16.7959C 43.1844 15.4694 43.1437 14.2324 43.0786 13.085C 43.0542 12.5967 43.0176 12.1043 42.9688 11.6079C 42.9281 11.1115 42.8752 10.6436 42.8101 10.2041C 42.7531 9.76465 42.6839 9.36995 42.6025 9.02002C 42.5212 8.66195 42.4276 8.38118 42.3218 8.17773C 43.1356 8.32422 43.8883 8.42188 44.5801 8.4707C 45.2718 8.51953 45.8944 8.54395 46.4478 8.54395C 46.814 8.54395 47.1395 8.53581 47.4243 8.51953C 47.7173 8.50325 47.9655 8.48698 48.1689 8.4707C 48.4049 8.44629 48.6125 8.42188 48.7915 8.39746Z"/>
</defs>
</svg>
