<svg width="27" height="24" viewBox="0 0 27 24" version="1.1" xmlns="http://www.w3.org/2000/svg" xmlns:xlink="http://www.w3.org/1999/xlink" xmlns:figma="http://www.figma.com/figma/ns">
<title>heart</title>
<desc>Created using Figma</desc>
<g id="Canvas" transform="translate(-2667 21)" figma:type="canvas">
<g id="heart" style="mix-blend-mode:normal;" figma:type="vector">
<mask id="mask0_outline_out">
<rect id="mask0_outline_inv" fill="white" x="-1" y="-1" width="27" height="24" transform="translate(2668 -19.6429)"/>
<use xlink:href="#path0_fill" fill="black" transform="translate(2668 -19.6429)"/>
</mask>
<g mask="url(#mask0_outline_out)">
<use xlink:href="#path1_stroke_2x" transform="translate(2668 -19.6429)" fill="#000000" fill-opacity="0.5" style="mix-blend-mode:normal;"/>
</g>
</g>
</g>
<defs>
<path id="path0_fill" d="M 13.1138 21.1775C 12.9464 21.3449 12.7418 21.4286 12.5 21.4286C 12.2582 21.4286 12.0536 21.3449 11.8862 21.1775L 3.1808 12.779C 3.0878 12.7046 2.95759 12.5837 2.79018 12.4163C 2.63207 12.2489 2.3763 11.9466 2.02288 11.5095C 1.66946 11.0631 1.35324 10.6073 1.07422 10.1423C 0.795201 9.67727 0.544085 9.11458 0.320871 8.45424C 0.106957 7.7939 0 7.15216 0 6.52902C 0 4.48289 0.590588 2.88318 1.77176 1.72991C 2.95294 0.576637 4.58519 0 6.66853 0C 7.24516 0 7.8311 0.102307 8.42634 0.30692C 9.03088 0.502232 9.58891 0.771949 10.1004 1.11607C 10.6213 1.45089 11.0677 1.76711 11.4397 2.06473C 11.8118 2.36235 12.1652 2.67857 12.5 3.01339C 12.8348 2.67857 13.1882 2.36235 13.5603 2.06473C 13.9323 1.76711 14.3741 1.45089 14.8856 1.11607C 15.4064 0.771949 15.9645 0.502232 16.5597 0.30692C 17.1642 0.102307 17.7548 0 18.3315 0C 20.4148 0 22.0471 0.576637 23.2282 1.72991C 24.4094 2.88318 25 4.48289 25 6.52902C 25 8.58445 23.9351 10.6771 21.8052 12.8069L 13.1138 21.1775Z"/>
<path id="path1_stroke_2x" d="M 13.1138 21.1775L 12.4202 20.4572L 12.4134 20.4637L 12.4067 20.4703L 13.1138 21.1775ZM 11.8862 21.1775L 12.5933 20.4703L 12.5869 20.464L 12.5805 20.4578L 11.8862 21.1775ZM 3.1808 12.779L 3.87511 12.0593L 3.84172 12.0271L 3.8055 11.9981L 3.1808 12.779ZM 2.79018 12.4163L 2.06317 13.1029L 2.07297 13.1133L 2.08307 13.1234L 2.79018 12.4163ZM 2.02288 11.5095L 1.23879 12.1302L 1.24525 12.1382L 2.02288 11.5095ZM 0.320871 8.45424L -0.630535 8.76244L -0.62647 8.77447L 0.320871 8.45424ZM 8.42634 0.30692L 8.10126 1.25261L 8.11006 1.25563L 8.11891 1.25849L 8.42634 0.30692ZM 10.1004 1.11607L 9.54227 1.94579L 9.55092 1.95161L 9.55969 1.95725L 10.1004 1.11607ZM 12.5 3.01339L 11.7929 3.7205L 12.5 4.42761L 13.2071 3.7205L 12.5 3.01339ZM 14.8856 1.11607L 15.4333 1.95278L 15.4369 1.95041L 14.8856 1.11607ZM 16.5597 0.30692L 16.8715 1.25712L 16.8803 1.25414L 16.5597 0.30692ZM 21.8052 12.8069L 22.4989 13.5272L 22.5057 13.5207L 22.5124 13.514L 21.8052 12.8069ZM 12.4067 20.4703C 12.4102 20.4669 12.4271 20.4522 12.4562 20.4402C 12.4849 20.4285 12.5033 20.4286 12.5 20.4286L 12.5 22.4286C 13.0007 22.4286 13.4616 22.244 13.8209 21.8846L 12.4067 20.4703ZM 12.5 20.4286C 12.4967 20.4286 12.5151 20.4285 12.5438 20.4402C 12.5729 20.4522 12.5898 20.4669 12.5933 20.4703L 11.1791 21.8846C 11.5384 22.244 11.9993 22.4286 12.5 22.4286L 12.5 20.4286ZM 12.5805 20.4578L 3.87511 12.0593L 2.4865 13.4987L 11.1919 21.8971L 12.5805 20.4578ZM 3.8055 11.9981C 3.74081 11.9473 3.65149 11.8636 3.49729 11.7092L 2.08307 13.1234C 2.26369 13.3038 2.43478 13.462 2.55611 13.5599L 3.8055 11.9981ZM 3.51719 11.7297C 3.37755 11.5824 3.14686 11.3092 2.80051 10.8808L 1.24525 12.1382C 1.60575 12.584 1.88659 12.9154 2.06317 13.1029L 3.51719 11.7297ZM 2.80693 10.8888C 2.47267 10.4674 2.19324 10.0647 1.93171 9.6278L 0.216726 10.6568C 0.513236 11.1499 0.866241 11.6587 1.23883 12.1302L 2.80693 10.8888ZM 1.93171 9.6278C 1.68216 9.21541 1.47537 8.7503 1.26821 8.13401L -0.62647 8.77447C -0.387203 9.47887 -0.0917533 10.1391 0.216726 10.6568L 1.93171 9.6278ZM 1.2722 8.14606C 1.07848 7.55696 0.996593 7.06968 1 6.52902L -1 6.52902C -0.996593 7.23464 -0.864568 8.03084 -0.630458 8.76242L 1.2722 8.14606ZM 1 6.52902C 1 4.68367 1.52601 3.36747 2.47037 2.44542L 1.07316 1.0144C -0.344837 2.3989 -1 4.28211 -1 6.52902L 1 6.52902ZM 2.47037 2.44542C 3.41902 1.51918 4.77452 1 6.66853 1L 6.66853 -1C 4.39587 -1 2.48686 -0.365904 1.07316 1.0144L 2.47037 2.44542ZM 6.66853 1C 7.15884 0.996267 7.58178 1.07073 8.10126 1.25261L 8.75142 -0.638767C 8.08042 -0.866115 7.33149 -0.996267 6.66853 -1L 6.66853 1ZM 8.11891 1.25849C 8.6587 1.43039 9.09099 1.63917 9.54227 1.94579L 10.6586 0.286349C 10.0868 -0.0952699 9.40306 -0.425928 8.73377 -0.644651L 8.11891 1.25849ZM 9.55969 1.95725C 10.0618 2.2797 10.4661 2.5659 10.815 2.8456L 12.0644 1.28386C 11.6693 0.968325 11.1808 0.622082 10.6412 0.274893L 9.55969 1.95725ZM 10.815 2.8456C 11.1658 3.1257 11.478 3.40503 11.7929 3.7205L 13.2071 2.30629C 12.8524 1.95212 12.4577 1.59901 12.0644 1.28386L 10.815 2.8456ZM 13.2071 3.7205C 13.522 3.40503 13.8342 3.1257 14.185 2.8456L 12.9356 1.28386C 12.5423 1.59901 12.1476 1.95212 11.7929 2.30629L 13.2071 3.7205ZM 14.185 2.8456C 14.5359 2.56441 14.939 2.276 15.4333 1.95277L 14.3379 0.27937C 13.8091 0.625785 13.3287 0.969816 12.9356 1.28386L 14.185 2.8456ZM 15.4369 1.95041C 15.9008 1.64123 16.3388 1.42954 16.8715 1.25708L 16.2479 -0.643238C 15.5902 -0.425076 14.9121 -0.0973326 14.3343 0.281736L 15.4369 1.95041ZM 16.8803 1.25414C 17.4106 1.07148 17.8405 0.996325 18.3315 1L 18.3315 -1C 17.6692 -0.996325 16.9179 -0.866867 16.2391 -0.640296L 16.8803 1.25414ZM 18.3315 1C 20.2255 1 21.581 1.51918 22.5296 2.44542L 23.9268 1.0144C 22.5131 -0.365904 20.6041 -1 18.3315 -1L 18.3315 1ZM 22.5296 2.44542C 23.474 3.36747 24 4.68367 24 6.52902L 26 6.52902C 26 4.28211 25.3448 2.3989 23.9268 1.0144L 22.5296 2.44542ZM 24 6.52902C 24 8.21733 23.1275 10.0705 21.0981 12.0998L 22.5124 13.514C 24.7427 11.2837 26 8.95157 26 6.52902L 24 6.52902ZM 21.1116 12.0866L 12.4202 20.4572L 13.8075 21.8977L 22.4989 13.5272L 21.1116 12.0866Z"/>
</defs>
</svg>
