<svg width="20" height="18" viewBox="0 0 20 18" version="1.1" xmlns="http://www.w3.org/2000/svg" xmlns:xlink="http://www.w3.org/1999/xlink" xmlns:figma="http://www.figma.com/figma/ns">
<title>&#239;&#128;&#132;</title>
<desc>Created using Figma</desc>
<g id="Canvas" transform="translate(-3045 413)" figma:type="canvas">
<g id="&#239;&#128;&#132;" filter="url(#filter0_d)" figma:type="vector">
<use xlink:href="#path0_fill" transform="translate(3047 -412)" fill="#EEEEEE" fill-opacity="0.8"/>
<mask id="mask0_outline_out">
<rect id="mask0_outline_inv" fill="white" x="-1" y="-1" width="18" height="16" transform="translate(3047 -412)"/>
<use xlink:href="#path0_fill" fill="black" transform="translate(3047 -412)"/>
</mask>
<g mask="url(#mask0_outline_out)">
<use xlink:href="#path1_stroke_2x" transform="translate(3047 -412)" fill="#FFFFFF"/>
</g>
</g>
</g>
<defs>
<filter id="filter0_d" filterUnits="userSpaceOnUse" x="3045" y="-413" width="20" height="18" color-interpolation-filters="sRGB">
<feFlood flood-opacity="0" result="BackgroundImageFix"/>
<desc>type="dropShadow" x="0" y="1" size="1" spread="0" color="0,0,0,0.25" blend="normal"</desc>
<feColorMatrix in="SourceAlpha" type="matrix" values="0 0 0 0 0 0 0 0 0 0 0 0 0 0 0 0 0 0 255 0"/>
<feOffset dx="0" dy="1"/>
<feGaussianBlur stdDeviation="0.5"/>
<feColorMatrix type="matrix" values="0 0 0 0 0 0 0 0 0 0 0 0 0 0 0 0 0 0 0.25 0"/>
<feBlend mode="normal" in2="BackgroundImageFix" result="effect1_dropShadow"/>
<feBlend mode="normal" in="SourceGraphic" in2="effect1_dropShadow" result="shape"/>
</filter>
<path id="path0_fill" d="M 8.39286 13.8359C 8.28571 13.9453 8.15476 14 8 14C 7.84524 14 7.71429 13.9453 7.60714 13.8359L 2.03571 8.34896C 1.97619 8.30035 1.89286 8.22135 1.78571 8.11198C 1.68452 8.0026 1.52083 7.80512 1.29464 7.51953C 1.06845 7.22786 0.866071 6.93012 0.6875 6.6263C 0.508929 6.32248 0.348214 5.95486 0.205357 5.52344C 0.0684524 5.09201 0 4.67274 0 4.26562C 0 2.92882 0.377976 1.88368 1.13393 1.13021C 1.88988 0.376736 2.93452 0 4.26786 0C 4.6369 0 5.0119 0.0668403 5.39286 0.200521C 5.77976 0.328125 6.1369 0.50434 6.46429 0.729167C 6.79762 0.947917 7.08333 1.15451 7.32143 1.34896C 7.55952 1.5434 7.78571 1.75 8 1.96875C 8.21429 1.75 8.44048 1.5434 8.67857 1.34896C 8.91667 1.15451 9.1994 0.947917 9.52679 0.729167C 9.86012 0.50434 10.2173 0.328125 10.5982 0.200521C 10.9851 0.0668403 11.3631 0 11.7321 0C 13.0655 0 14.1101 0.376736 14.8661 1.13021C 15.622 1.88368 16 2.92882 16 4.26562C 16 5.60851 15.3185 6.97569 13.9554 8.36719L 8.39286 13.8359Z"/>
<path id="path1_stroke_2x" d="M 8.39286 13.8359L 7.69178 13.1228L 7.68508 13.1294L 7.6785 13.1362L 8.39286 13.8359ZM 7.60714 13.8359L 8.3215 13.1362L 8.31522 13.1297L 8.30883 13.1235L 7.60714 13.8359ZM 2.03571 8.34896L 2.7374 7.63647L 2.70427 7.60384L 2.66825 7.57443L 2.03571 8.34896ZM 1.78571 8.11198L 1.05168 8.79109L 1.06137 8.80156L 1.07136 8.81176L 1.78571 8.11198ZM 1.29464 7.51953L 0.504382 8.13239L 0.510728 8.1404L 1.29464 7.51953ZM 0.205357 5.52344L -0.747877 5.82593L -0.743952 5.83778L 0.205357 5.52344ZM 5.39286 0.200521L 5.06174 1.14411L 5.07066 1.14724L 5.07964 1.1502L 5.39286 0.200521ZM 6.46429 0.729167L 5.89818 1.5535L 5.90684 1.55945L 5.91563 1.56521L 6.46429 0.729167ZM 8 1.96875L 7.28564 2.66853L 8 3.39777L 8.71436 2.66853L 8 1.96875ZM 9.52679 0.729167L 10.0824 1.56064L 10.086 1.55822L 9.52679 0.729167ZM 10.5982 0.200521L 10.9158 1.14878L 10.9248 1.14569L 10.5982 0.200521ZM 13.9554 8.36719L 14.6564 9.08028L 14.6631 9.07369L 14.6697 9.06697L 13.9554 8.36719ZM 7.6785 13.1362C 7.7111 13.1029 7.76144 13.0644 7.82893 13.0362C 7.89619 13.0081 7.95714 13 8 13L 8 15C 8.42028 15 8.8097 14.8394 9.10722 14.5357L 7.6785 13.1362ZM 8 13C 8.04286 13 8.10381 13.0081 8.17107 13.0362C 8.23856 13.0644 8.2889 13.1029 8.3215 13.1362L 6.89278 14.5357C 7.1903 14.8394 7.57972 15 8 15L 8 13ZM 8.30883 13.1235L 2.7374 7.63647L 1.33403 9.06144L 6.90546 14.5484L 8.30883 13.1235ZM 2.66825 7.57443C 2.63688 7.54969 2.59413 7.50846 2.50007 7.4122L 1.07136 8.81176C 1.19158 8.93425 1.3155 9.051 1.40318 9.12349L 2.66825 7.57443ZM 2.51975 7.43287C 2.43677 7.34373 2.29779 7.17557 2.07856 6.89866L 0.510728 8.1404C 0.743876 8.43467 0.932275 8.66148 1.05168 8.79109L 2.51975 7.43287ZM 2.08486 6.90671C 1.87748 6.64009 1.7111 6.3954 1.54962 6.11959L -0.174615 7.13301C 0.0210414 7.46484 0.259428 7.81564 0.504423 8.13235L 2.08486 6.90671ZM 1.54962 6.11959C 1.3997 5.86803 1.282 5.59702 1.15467 5.20909L -0.743952 5.83778C -0.58557 6.3127 -0.381845 6.77693 -0.174615 7.13301L 1.54962 6.11959ZM 1.15852 5.22097C 1.04107 4.8596 0.996728 4.59191 1 4.26562L -1 4.26562C -0.996728 4.75357 -0.904164 5.32443 -0.747802 5.82591L 1.15852 5.22097ZM 1 4.26562C 1 3.12373 1.31704 2.35959 1.83987 1.83848L 0.427985 0.421941C -0.561086 1.40777 -1 2.73391 -1 4.26562L 1 4.26562ZM 1.83987 1.83848C 2.36423 1.31584 3.12952 1 4.26786 1L 4.26786 -1C 2.73952 -1 1.41553 -0.562365 0.427985 0.421941L 1.83987 1.83848ZM 4.26786 1C 4.54882 0.996113 4.75778 1.03401 5.06174 1.14411L 5.72397 -0.743069C 5.26602 -0.900333 4.72498 -0.996113 4.26786 -1L 4.26786 1ZM 5.07964 1.1502C 5.40099 1.25362 5.63132 1.36711 5.89818 1.5535L 7.03039 -0.0951667C 6.64249 -0.358434 6.15853 -0.597367 5.70607 -0.749162L 5.07964 1.1502ZM 5.91563 1.56521C 6.23017 1.77132 6.47383 1.94729 6.68889 2.12349L 7.95396 0.574426C 7.69284 0.361733 7.36507 0.124509 7.01294 -0.106881L 5.91563 1.56521ZM 6.68889 2.12349C 6.9058 2.30014 7.09106 2.46935 7.28564 2.66853L 8.71436 1.26897C 8.48036 1.03065 8.21324 0.786666 7.95396 0.574426L 6.68889 2.12349ZM 8.71436 2.66853C 8.90894 2.46935 9.0942 2.30014 9.31111 2.12349L 8.04604 0.574426C 7.78676 0.786666 7.51964 1.03065 7.28564 1.26897L 8.71436 2.66853ZM 9.31111 2.12349C 9.52814 1.94577 9.77231 1.76754 10.0824 1.56064L 8.97121 -0.102302C 8.6265 0.128293 8.30519 0.363253 8.04604 0.574426L 9.31111 2.12349ZM 10.086 1.55822C 10.3621 1.36923 10.5982 1.25274 10.9158 1.14874L 10.2806 -0.747698C 9.83635 -0.596485 9.35815 -0.360545 8.96761 -0.0998822L 10.086 1.55822ZM 10.9248 1.14569C 11.2363 1.03479 11.4505 0.996173 11.7321 1L 11.7321 -1C 11.2757 -0.996173 10.734 -0.901112 10.2716 -0.744652L 10.9248 1.14569ZM 11.7321 1C 12.8705 1 13.6358 1.31584 14.1601 1.83848L 15.572 0.421941C 14.5845 -0.562365 13.2605 -1 11.7321 -1L 11.7321 1ZM 14.1601 1.83848C 14.683 2.35959 15 3.12373 15 4.26562L 17 4.26562C 17 2.73391 16.5611 1.40777 15.572 0.421941L 14.1601 1.83848ZM 15 4.26562C 15 5.24898 14.5033 6.37877 13.241 7.66741L 14.6697 9.06697C 16.1336 7.57262 17 5.96803 17 4.26562L 15 4.26562ZM 13.2543 7.6541L 7.69178 13.1228L 9.09393 14.549L 14.6564 9.08028L 13.2543 7.6541Z"/>
</defs>
</svg>
