<svg width="20" height="27" viewBox="0 0 20 27" version="1.1" xmlns="http://www.w3.org/2000/svg" xmlns:xlink="http://www.w3.org/1999/xlink" xmlns:figma="http://www.figma.com/figma/ns">
<title>notification</title>
<desc>Created using Figma</desc>
<g id="Canvas" transform="translate(-2780 22)" figma:type="canvas">
<g id="notification" style="mix-blend-mode:normal;" figma:type="vector-operation">
<mask id="mask0_outline_ins">
<use xlink:href="#path0_fill" fill="white" transform="translate(2780.49 -22)"/>
</mask>
<g mask="url(#mask0_outline_ins)">
<use xlink:href="#path1_stroke_2x" transform="translate(2780.49 -22)" fill="#000000" fill-opacity="0.4" style="mix-blend-mode:normal;"/>
</g>
</g>
</g>
<defs>
<path id="path0_fill" fill-rule="evenodd" d="M 9.54022 0C 4.2713 0 0 4.27131 0 9.54025L 0 20.6115L 19.0805 20.6115L 19.0805 9.54025C 19.0805 4.27131 14.8092 0 9.54022 0ZM 9.81329 27C 12.1685 27 14.0778 25.0907 14.0778 22.7355L 4.7702 22.7355C 4.7702 25.0907 6.67944 27 9.03467 27L 9.81329 27Z"/>
<path id="path1_stroke_2x" d="M 0 20.6115L -1 20.6115L -1 21.6115L 0 21.6115L 0 20.6115ZM 19.0805 20.6115L 19.0805 21.6115L 20.0805 21.6115L 20.0805 20.6115L 19.0805 20.6115ZM 14.0778 22.7355L 15.0778 22.7355L 15.0778 21.7355L 14.0778 21.7355L 14.0778 22.7355ZM 4.7702 22.7355L 4.7702 21.7355L 3.7702 21.7355L 3.7702 22.7355L 4.7702 22.7355ZM 1 9.54025C 1 4.8236 4.82359 1 9.54022 1L 9.54022 -1C 3.71901 -1 -1 3.71903 -1 9.54025L 1 9.54025ZM 1 20.6115L 1 9.54025L -1 9.54025L -1 20.6115L 1 20.6115ZM 19.0805 19.6115L 0 19.6115L 0 21.6115L 19.0805 21.6115L 19.0805 19.6115ZM 18.0805 9.54025L 18.0805 20.6115L 20.0805 20.6115L 20.0805 9.54025L 18.0805 9.54025ZM 9.54022 1C 14.2569 1 18.0805 4.8236 18.0805 9.54025L 20.0805 9.54025C 20.0805 3.71903 15.3615 -1 9.54022 -1L 9.54022 1ZM 13.0778 22.7355C 13.0778 24.5385 11.6162 26 9.81329 26L 9.81329 28C 12.7208 28 15.0778 25.643 15.0778 22.7355L 13.0778 22.7355ZM 4.7702 23.7355L 14.0778 23.7355L 14.0778 21.7355L 4.7702 21.7355L 4.7702 23.7355ZM 9.03467 26C 7.23173 26 5.7702 24.5385 5.7702 22.7355L 3.7702 22.7355C 3.7702 25.643 6.12716 28 9.03467 28L 9.03467 26ZM 9.81329 26L 9.03467 26L 9.03467 28L 9.81329 28L 9.81329 26Z"/>
</defs>
</svg>
