<svg width="32" height="31" viewBox="0 0 32 31" version="1.1" xmlns="http://www.w3.org/2000/svg" xmlns:xlink="http://www.w3.org/1999/xlink" xmlns:figma="http://www.figma.com/figma/ns">
<title>setting</title>
<desc>Created using Figma</desc>
<g id="Canvas" transform="translate(-2875 23)" figma:type="canvas">
<g id="setting" style="mix-blend-mode:normal;" figma:type="frame">
<g id="Stroke 1617" style="mix-blend-mode:normal;" figma:type="vector">
<use xlink:href="#path0_stroke" transform="translate(2875.89 -22.5)" fill="#303C42" fill-opacity="0.5" style="mix-blend-mode:normal;"/>
</g>
<g id="Stroke 1619" style="mix-blend-mode:normal;" figma:type="vector">
<use xlink:href="#path1_stroke" transform="translate(2885 -13.1897)" fill="#303C42" fill-opacity="0.5" style="mix-blend-mode:normal;"/>
</g>
</g>
</g>
<defs>
<path id="path0_stroke" d="M 26.295 13.0934L 25.9806 12.7046C 25.8385 12.8195 25.7704 13.0028 25.803 13.1826L 26.295 13.0934ZM 30 10.0976L 30.3144 10.4864C 30.508 10.3299 30.5569 10.0548 30.4292 9.84109L 30 10.0976ZM 26.8946 4.90138L 27.3238 4.64488C 27.2017 4.4406 26.9526 4.35068 26.7282 4.42989L 26.8946 4.90138ZM 22.364 6.50069L 22.0493 6.88922C 22.1844 6.99862 22.3665 7.03003 22.5304 6.97218L 22.364 6.50069ZM 18.9385 4.59724L 18.4465 4.68629C 18.4784 4.86294 18.6027 5.0089 18.7719 5.06869L 18.9385 4.59724ZM 18.1064 0L 18.5984 -0.0890452C 18.5554 -0.326975 18.3482 -0.5 18.1064 -0.5L 18.1064 0ZM 11.8946 0L 11.8946 -0.5C 11.6529 -0.5 11.4458 -0.327035 11.4026 -0.0891561L 11.8946 0ZM 11.0615 4.59724L 11.2282 5.06865C 11.3974 5.00884 11.5215 4.86296 11.5535 4.6864L 11.0615 4.59724ZM 7.63599 6.50069L 7.46952 6.97216C 7.63335 7.03001 7.81545 6.99866 7.95051 6.88938L 7.63599 6.50069ZM 3.10644 4.90138L 3.27291 4.4299C 3.04852 4.35068 2.79939 4.44057 2.67728 4.64482L 3.10644 4.90138ZM 0 10.0976L -0.429157 9.84102C -0.556909 10.0547 -0.507979 10.3298 -0.314381 10.4864L 0 10.0976ZM 3.70503 13.0934L 4.19717 13.1817C 4.22938 13.0022 4.16126 12.8193 4.01941 12.7046L 3.70503 13.0934ZM 3.70503 16.9066L 4.01934 17.2954C 4.16123 17.1807 4.22939 16.9978 4.19717 16.8183L 3.70503 16.9066ZM 0 19.9014L -0.314315 19.5125C -0.507952 19.669 -0.556921 19.9442 -0.42918 20.1579L 0 19.9014ZM 3.10644 25.0986L 2.67726 25.3551C 2.79936 25.5594 3.04851 25.6493 3.27291 25.5701L 3.10644 25.0986ZM 7.63599 23.4993L 7.95051 23.1106C 7.81545 23.0013 7.63335 22.97 7.46952 23.0278L 7.63599 23.4993ZM 11.0615 25.4028L 11.5535 25.3136C 11.5215 25.137 11.3974 24.9912 11.2282 24.9314L 11.0615 25.4028ZM 11.8946 30L 11.4026 30.0892C 11.4458 30.327 11.6529 30.5 11.8946 30.5L 11.8946 30ZM 18.1064 30L 18.1064 30.5C 18.3482 30.5 18.5554 30.327 18.5984 30.089L 18.1064 30ZM 18.9385 25.4028L 18.7719 24.9313C 18.6027 24.9911 18.4784 25.1371 18.4465 25.3137L 18.9385 25.4028ZM 22.364 23.4993L 22.5304 23.0278C 22.3665 22.97 22.1844 23.0014 22.0493 23.1108L 22.364 23.4993ZM 26.8946 25.0986L 26.7282 25.5701C 26.9526 25.6493 27.2018 25.5594 27.3238 25.3551L 26.8946 25.0986ZM 30 19.9014L 30.4292 20.1578C 30.5569 19.9441 30.5079 19.669 30.3143 19.5125L 30 19.9014ZM 26.295 16.9066L 25.803 16.8174C 25.7704 16.9973 25.8385 17.1805 25.9807 17.2954L 26.295 16.9066ZM 26.977 15C 26.9763 14.321 26.9022 13.6423 26.787 13.0043L 25.803 13.1826C 25.9126 13.786 25.9778 14.3756 25.977 15L 26.977 15ZM 26.6094 13.4822L 30.3144 10.4864L 29.6856 9.70879L 25.9806 12.7046L 26.6094 13.4822ZM 30.4292 9.84109L 27.3238 4.64488L 26.4654 5.15788L 29.5708 10.3541L 30.4292 9.84109ZM 26.7282 4.42989L 22.1976 6.0292L 22.5304 6.97218L 27.0611 5.37287L 26.7282 4.42989ZM 22.6787 6.11216C 21.636 5.27 20.403 4.58612 19.105 4.12579L 18.7719 5.06869C 19.9925 5.49802 21.0767 6.09897 22.0493 6.88922L 22.6787 6.11216ZM 19.4305 4.5082L 18.5984 -0.0890452L 17.6144 0.0890452L 18.4465 4.68629L 19.4305 4.5082ZM 18.1064 -0.5L 11.8946 -0.5L 11.8946 0.5L 18.1064 0.5L 18.1064 -0.5ZM 11.4026 -0.0891561L 10.5695 4.50809L 11.5535 4.6864L 12.3866 0.0891561L 11.4026 -0.0891561ZM 10.8949 4.12583C 9.59806 4.58615 8.36516 5.26993 7.32148 6.112L 7.95051 6.88938C 8.92425 6.09904 10.0086 5.49799 11.2282 5.06865L 10.8949 4.12583ZM 7.80246 6.02922L 3.27291 4.4299L 2.93997 5.37285L 7.46952 6.97216L 7.80246 6.02922ZM 2.67728 4.64482L -0.429157 9.84102L 0.429157 10.3541L 3.5356 5.15794L 2.67728 4.64482ZM -0.314381 10.4864L 3.39065 13.4822L 4.01941 12.7046L 0.314381 9.70879L -0.314381 10.4864ZM 3.21288 13.0051C 3.09885 13.6423 3.02376 14.3205 3.02299 15L 4.02299 15C 4.02222 14.376 4.08847 13.786 4.19717 13.1817L 3.21288 13.0051ZM 3.02299 15C 3.02376 15.6795 3.09885 16.3577 3.21288 16.9949L 4.19717 16.8183C 4.08847 16.214 4.02222 15.624 4.02299 15L 3.02299 15ZM 3.39071 16.5177L -0.314315 19.5125L 0.314315 20.2902L 4.01934 17.2954L 3.39071 16.5177ZM -0.42918 20.1579L 2.67726 25.3551L 3.53562 24.8421L 0.42918 19.6449L -0.42918 20.1579ZM 3.27291 25.5701L 7.80246 23.9708L 7.46952 23.0278L 2.93997 24.6271L 3.27291 25.5701ZM 7.32148 23.888C 8.36516 24.7301 9.59806 25.4139 10.8949 25.8742L 11.2282 24.9314C 10.0086 24.502 8.92425 23.901 7.95051 23.1106L 7.32148 23.888ZM 10.5695 25.4919L 11.4026 30.0892L 12.3866 29.9108L 11.5535 25.3136L 10.5695 25.4919ZM 11.8946 30.5L 18.1064 30.5L 18.1064 29.5L 11.8946 29.5L 11.8946 30.5ZM 18.5984 30.089L 19.4305 25.4918L 18.4465 25.3137L 17.6144 29.911L 18.5984 30.089ZM 19.105 25.8742C 20.403 25.4139 21.636 24.73 22.6787 23.8878L 22.0493 23.1108C 21.0767 23.901 19.9925 24.502 18.7719 24.9313L 19.105 25.8742ZM 22.1976 23.9708L 26.7282 25.5701L 27.0611 24.6271L 22.5304 23.0278L 22.1976 23.9708ZM 27.3238 25.3551L 30.4292 20.1578L 29.5708 19.6449L 26.4654 24.8422L 27.3238 25.3551ZM 30.3143 19.5125L 26.6093 16.5177L 25.9807 17.2954L 29.6857 20.2902L 30.3143 19.5125ZM 26.787 16.9957C 26.9022 16.3577 26.9763 15.679 26.977 15L 25.977 15C 25.9778 15.6244 25.9126 16.214 25.803 16.8174L 26.787 16.9957Z"/>
<path id="path1_stroke" d="M 11.279 5.68966C 11.279 8.54008 8.88189 10.8793 5.88949 10.8793L 5.88949 11.8793C 9.40123 11.8793 12.279 9.12474 12.279 5.68966L 11.279 5.68966ZM 5.88949 10.8793C 2.89608 10.8793 0.5 8.54014 0.5 5.68966L -0.5 5.68966C -0.5 9.12469 2.37662 11.8793 5.88949 11.8793L 5.88949 10.8793ZM 0.5 5.68966C 0.5 2.83917 2.89608 0.5 5.88949 0.5L 5.88949 -0.5C 2.37662 -0.5 -0.5 2.25463 -0.5 5.68966L 0.5 5.68966ZM 5.88949 0.5C 8.88189 0.5 11.279 2.83923 11.279 5.68966L 12.279 5.68966C 12.279 2.25457 9.40123 -0.5 5.88949 -0.5L 5.88949 0.5Z"/>
</defs>
</svg>
