<svg width="28" height="30" viewBox="0 0 28 30" version="1.1" xmlns="http://www.w3.org/2000/svg" xmlns:xlink="http://www.w3.org/1999/xlink" xmlns:figma="http://www.figma.com/figma/ns">
<title>user</title>
<desc>Created using Figma</desc>
<g id="Canvas" transform="translate(-2556 25)" figma:type="canvas">
<g id="user" style="mix-blend-mode:normal;" opacity="0.5" figma:type="frame">
<path d="M 2557.25 -24L 2583.01 -24L 2583.01 4L 2557.25 4L 2557.25 -24Z" fill="#FFFFFF"/>
<g id="Stroke 293" style="mix-blend-mode:normal;" figma:type="vector">
<use xlink:href="#path0_stroke" transform="translate(2564.07 -24)" fill="#303C42" style="mix-blend-mode:normal;"/>
</g>
<g id="Stroke 295" style="mix-blend-mode:normal;" figma:type="vector">
<use xlink:href="#path1_stroke" transform="translate(2557.25 -7.52941)" fill="#303C42" style="mix-blend-mode:normal;"/>
</g>
</g>
</g>
<defs>
<path id="path0_stroke" d="M 11.6217 6.58824C 11.6217 9.99054 9.09336 12.6765 6.06085 12.6765L 6.06085 13.6765C 9.72256 13.6765 12.6217 10.4626 12.6217 6.58824L 11.6217 6.58824ZM 6.06085 12.6765C 3.02834 12.6765 0.5 9.99054 0.5 6.58824L -0.5 6.58824C -0.5 10.4626 2.39915 13.6765 6.06085 13.6765L 6.06085 12.6765ZM 0.5 6.58824C 0.5 3.18593 3.02834 0.5 6.06085 0.5L 6.06085 -0.5C 2.39915 -0.5 -0.5 2.71383 -0.5 6.58824L 0.5 6.58824ZM 6.06085 0.5C 9.09336 0.5 11.6217 3.18593 11.6217 6.58824L 12.6217 6.58824C 12.6217 2.71383 9.72256 -0.5 6.06085 -0.5L 6.06085 0.5Z"/>
<path id="path1_stroke" d="M 2.68496 3.17059L 2.42687 2.74235L 2.42641 2.74262L 2.68496 3.17059ZM 23.0737 3.17059L 23.3322 2.74262L 23.3318 2.74235L 23.0737 3.17059ZM 12.8793 -0.5C 8.67846 -0.48814 4.83029 1.2947 2.42687 2.74235L 2.94304 3.59883C 5.30042 2.1773 8.89498 0.48814 12.8793 0.5L 12.8793 -0.5ZM 2.42641 2.74262C 0.612494 3.83845 -0.5 5.98991 -0.5 8.31271L 0.5 8.31271C 0.5 6.29056 1.46941 4.48908 2.9435 3.59855L 2.42641 2.74262ZM -0.5 8.31271L -0.5 9.36682L 0.5 9.36682L 0.5 8.31271L -0.5 8.31271ZM -0.5 9.36682C -0.5 10.7599 0.473865 12.0294 1.83947 12.0294L 1.83947 11.0294C 1.17166 11.0294 0.5 10.3653 0.5 9.36682L -0.5 9.36682ZM 1.83947 12.0294L 23.9192 12.0294L 23.9192 11.0294L 1.83947 11.0294L 1.83947 12.0294ZM 23.9192 12.0294C 25.283 12.0294 26.2586 10.7602 26.2586 9.36682L 25.2586 9.36682C 25.2586 10.365 24.5857 11.0294 23.9192 11.0294L 23.9192 12.0294ZM 26.2586 9.36682L 26.2586 8.31271L 25.2586 8.31271L 25.2586 9.36682L 26.2586 9.36682ZM 26.2586 8.31271C 26.2586 5.98991 25.1461 3.83845 23.3322 2.74262L 22.8151 3.59855C 24.2892 4.48908 25.2586 6.29056 25.2586 8.31271L 26.2586 8.31271ZM 23.3318 2.74235C 20.9283 1.2947 17.0802 -0.48814 12.8793 -0.5L 12.8793 0.5C 16.8636 0.48814 20.4582 2.1773 22.8156 3.59883L 23.3318 2.74235Z"/>
</defs>
</svg>
